<?xml version="1.0" standalone="no"?>
<!DOCTYPE svg PUBLIC "-//W3C//DTD SVG 20010904//EN"
 "http://www.w3.org/TR/2001/REC-SVG-20010904/DTD/svg10.dtd">
<svg version="1.0" xmlns="http://www.w3.org/2000/svg"
 width="1024.000000pt" height="1024.000000pt" viewBox="0 0 1024.000000 1024.000000"
 preserveAspectRatio="xMidYMid meet">

<g transform="translate(0.000000,1024.000000) scale(0.100000,-0.100000)"
fill="#000000" stroke="none">
<path d="M7273 10006 c-215 -49 -395 -244 -423 -457 -6 -45 -10 -844 -10
-2049 l0 -1975 -657 661 c-598 601 -664 664 -723 693 -90 44 -161 61 -255 61
-153 0 -277 -51 -385 -160 -71 -70 -129 -169 -149 -254 -15 -61 -16 -196 -1
-260 6 -26 25 -77 42 -114 30 -63 102 -137 1192 -1229 1021 -1021 1168 -1165
1221 -1191 111 -54 162 -67 270 -66 112 1 188 23 289 84 38 23 412 391 1199
1179 1232 1233 1177 1174 1221 1320 20 69 21 208 1 286 -38 144 -153 284 -286
348 -93 45 -143 56 -244 57 -93 0 -163 -17 -255 -61 -59 -29 -124 -90 -722
-688 l-658 -657 -2 2016 c-3 1928 -4 2017 -21 2070 -78 233 -270 383 -502 396
-49 2 -104 -2 -142 -10z"/>
<path d="M1910 7087 c-102 -23 -172 -84 -209 -182 -21 -55 -21 -69 -21 -745 0
-679 0 -690 21 -746 27 -73 85 -135 152 -165 l52 -24 1340 0 c1251 0 1343 1
1378 17 93 42 158 125 176 225 l9 48 -148 151 c-179 183 -232 259 -298 434
-22 59 -25 84 -29 257 -5 187 -2 216 30 328 32 113 101 229 189 321 66 68 68
72 46 80 -38 14 -2623 15 -2688 1z"/>
<path d="M6135 6725 c204 -207 373 -376 378 -375 4 0 7 169 7 375 l0 375 -377
0 -378 0 370 -375z"/>
<path d="M8260 6723 l0 -378 150 150 150 150 0 102 c0 79 -5 115 -21 158 -35
95 -115 165 -204 180 -22 4 -48 9 -57 12 -17 4 -18 -18 -18 -374z"/>
<path d="M307 4573 c-58 -19 -131 -81 -157 -133 -38 -74 -41 -151 -38 -831 3
-610 5 -657 22 -703 27 -70 97 -138 169 -165 l59 -21 1176 2 1177 3 46 22 c62
31 107 78 138 143 l26 55 0 710 0 710 -26 56 c-34 72 -88 123 -156 149 -53 20
-73 20 -1221 19 -1041 0 -1172 -2 -1215 -16z"/>
<path d="M3770 4581 c-83 -26 -141 -74 -181 -151 l-24 -45 0 -730 0 -730 30
-54 c36 -65 83 -105 153 -131 52 -20 82 -20 1372 -20 1290 0 1320 0 1372 20
70 26 117 66 153 131 l30 54 3 359 3 360 -473 473 -473 473 -970 -1 c-533 0
-981 -4 -995 -8z"/>
<path d="M8480 4037 c-528 -526 -559 -554 -637 -595 -142 -74 -248 -103 -401
-109 l-134 -6 4 -191 c3 -181 4 -194 29 -246 31 -65 76 -112 138 -143 l46 -22
1177 -3 1176 -2 59 21 c72 27 142 95 169 165 17 46 19 93 22 703 3 680 0 757
-38 831 -27 53 -100 114 -161 133 -45 15 -106 17 -473 17 l-421 0 -555 -553z"/>
<path d="M1889 2076 c-94 -29 -168 -105 -196 -200 -10 -31 -13 -212 -13 -728
0 -655 1 -690 19 -738 41 -107 120 -170 240 -190 99 -16 2613 -9 2662 8 89 30
165 107 192 196 19 63 17 1406 -2 1461 -22 62 -57 112 -103 145 -87 63 -14 60
-1452 59 -955 -1 -1321 -4 -1347 -13z"/>
<path d="M5633 2071 c-92 -31 -151 -91 -184 -186 -19 -55 -21 -1398 -2 -1461
27 -89 103 -166 192 -196 49 -17 2563 -24 2662 -8 120 20 199 83 240 190 18
48 19 83 19 738 0 516 -3 697 -13 728 -29 97 -104 172 -201 201 -32 10 -340
13 -1351 13 -1231 -1 -1313 -2 -1362 -19z"/>
</g>
</svg>
